<?xml version="1.0" encoding="UTF-8"?>
<svg version="1.1" viewBox="0 0 1024 1024" width="256" height="256" xmlns="http://www.w3.org/2000/svg">
<path transform="translate(501)" d="m0 0h24l37 3 30 4 36 7 35 9 29 10 24 10 29 14 22 12 20 12 12 8 17 12 13 10 11 9 14 12 8 8 2 1v2l4 2 17 17 7 8 10 11 11 14 12 16 11 16 9 14 17 29 12 23 11 25 11 29 8 26 7 28 6 33 4 29 3 37v21l-5 54-7 41-10 40-12 36-11 27-12 25-13 24-13 21-9 13-10 14-10 13-18 22-7 7-1 2h-2l-2 4-24 24-8 7-14 12-13 10-18 13-21 14-22 13-22 12-25 12-33 13-29 9-32 8-27 5-30 4-25 2h-46l-28-2-33-4-29-5-40-10-32-11-24-10-24-11-21-11-17-10-23-15-19-14-13-10-15-13-8-7-37-37-9-11-12-15-12-16-12-17-12-20-12-21-14-28-12-29-8-22-10-35-6-27-7-43-4-41v-36l5-45 6-36 7-30 10-34 13-34 7-16 9-17 8-16 14-23 14-21 14-19 9-11 14-17 4-5h2l2-4 31-31 11-9 16-13 12-9 17-12 15-10 35-20 24-12 29-12 21-8 28-8 32-8 35-6 29-3zm181 204-10 4-7 7-5 11-4 12-2 1-152 1-10 7-6 8-3 8-1 14v170l-1 30-1 1h-175l-1-4-1-112-4-18-6-12-9-11-11-9-16-8-9-2h-21l-8 3-8 6-6 10-2 9v11l4 10 7 8 8 4 16 5 1 4 1 141 3 12 6 8 10 6 7 2 14 1 195 1 5 2 1 2v167l-4 1-113 1-17 4-14 7-13 11-10 14-5 13-2 10-1 13 2 13 6 10 8 6 9 3h13l9-3 8-7 3-3 4-10 1-11 3-5 7-1h146l10-4 6-5 5-8 2-7 1-206 2-5 6-2h155l7 2 1 15 1 101 5 19 5 10 8 10 7 7 10 7 11 5 20 3h10l9-2 9-6 6-8 3-9v-15l-3-8-9-10-9-4-13-3-5-3-1-22-1-132-5-10-7-7-11-4h-209l-2-8v-160l2-6 21-1 92-1 17-4 15-8 10-9 8-9 8-16 3-17v-10l-2-9-7-10-8-5-6-2zm-298 160-10 3-9 7-5 8-2 8v10l3 11 7 9 8 5 7 3h9l10-3 9-6 5-6 4-10v-15l-6-12-8-7-10-4-4-1zm238 0-9 3-8 6-6 10-2 7v11l4 11 6 8 8 5 8 3h11l10-4 8-6 4-6 4-13-1-12-6-12-7-6-13-5zm-241 230-10 4-5 4-6 10-2 8v11l4 11 5 7 9 6 8 2h9l11-3 6-4v-2h2l6-9 2-6v-15l-4-10-8-9-8-4-4-1zm240 0-10 4-8 7-5 12-1 4v10l4 11 8 9 8 4 3 1h17l9-4 8-7 4-8 2-9-1-11-4-9-7-8-6-4-7-2z"/>
</svg>
